<svg xmlns="http://www.w3.org/2000/svg" viewBox="0 0 900 200" width="100%" role="img" aria-label="CineCommon banner">
  <title>CineCommon</title>
  <rect width="900" height="200" fill="#0d1117"/>
  <circle cx="82" cy="42" r="22" fill="none" stroke="#2f81f7" stroke-width="2"/>
  <circle cx="820" cy="54" r="16" fill="none" stroke="#f85149" stroke-width="2"/>
  <rect x="640" y="28" width="88" height="8" rx="4" fill="#1f6feb"/>
  <rect x="742" y="28" width="54" height="8" rx="4" fill="#238636"/>
  <rect x="92" y="146" width="716" height="1.5" fill="#30363d"/>
  <text x="450" y="78" text-anchor="middle" fill="#f0f6fc" font-family="system-ui, -apple-system, monospace" font-size="42" font-weight="700">CineCommon</text>
  <text x="450" y="110" text-anchor="middle" fill="#8b949e" font-family="system-ui, -apple-system, monospace" font-size="16">Local-first Android movie community, with a healthy respect for metadata</text>

  <g font-family="system-ui, -apple-system, monospace" font-size="13" font-weight="600" fill="#c9d1d9" text-anchor="middle">
    <g transform="translate(96 154)">
      <rect width="92" height="24" rx="12" fill="#161b22" stroke="#30363d"/>
      <text x="46" y="16">Kotlin</text>
    </g>
    <g transform="translate(196 154)">
      <rect width="112" height="24" rx="12" fill="#161b22" stroke="#30363d"/>
      <text x="56" y="16">Compose</text>
    </g>
    <g transform="translate(316 154)">
      <rect width="80" height="24" rx="12" fill="#161b22" stroke="#30363d"/>
      <text x="40" y="16">Room</text>
    </g>
    <g transform="translate(404 154)">
      <rect width="72" height="24" rx="12" fill="#161b22" stroke="#30363d"/>
      <text x="36" y="16">KSP</text>
    </g>
    <g transform="translate(484 154)">
      <rect width="122" height="24" rx="12" fill="#161b22" stroke="#30363d"/>
      <text x="61" y="16">Coroutines</text>
    </g>
    <g transform="translate(614 154)">
      <rect width="124" height="24" rx="12" fill="#161b22" stroke="#30363d"/>
      <text x="62" y="16">GitHub Actions</text>
    </g>
  </g>
</svg>
